{"title":"Austin to Boston (2015) WEBRip 1080p H264 iTunes","uid":12170692,"size":2737224214,"categoryP":"video","categoryS":"hd___movies","magnet":"?xt=urn:btih:828c3e39f69fd658b0bcb2a235b43b9273965c95&amp;dn=Austin+to+Boston+%282015%29+WEBRip+1080p+H264+iTunes&amp;tr=udp%3A%2F%2Ftracker.openbittorrent.com%3A80&amp;tr=udp%3A%2F%2Fopen.demonii.com%3A1337&amp;tr=udp%3A%2F%2Ftracker.coppersurfer.tk%3A6969&amp;tr=udp%3A%2F%2Fexodus.desync.com%3A6969","seeders":1,"leechers":0,"uploader":null,"files":2,"time":1438170903,"description":"Austin to Boston (2015) WEBRip 1080p H264 iTunes\n\nThere's two audio tracks from this iTunes DRM stripped rip, the first is a stereo AAC stream and the second a regular AC3 5.1 surround stream. Enjoy!\n &lt;a href=&quot;\nhttp://www.imdb.com/title/tt3722248/&quot; rel=&quot;nofollow&quot; target=&quot;_NEW&quot;&gt;\nhttp://www.imdb.com/title/tt3722248/&lt;/a&gt;\nRatings: 7,1/10\n\nMetadata:\n  major_brand     : mp42\n  minor_version   : 0\n  compatible_brands: mp42isom\n  title           : Austin to Boston\n  artist          : James Marcus Haney\n  genre           : Concert Films\n  gapless_playback: 0\n  date            : 2015-06-12T07:00:00Z\n  copyright       : Â© 2015 Communion Music / Sideshow Alley\n  description     : Five old VW camper vans. Four bands. Three thousand miles. Two weeks. One gloriously backwards tour\n  hd_video        : 2\n  media_type      : 9\n  synopsis        : Five old VW camper vans. Four bands. Three thousand miles. Two weeks. One gloriously backwards tour. The adventure starts after a fire-fuelled final night at Austin's SXSW Music Festival, where the bands (Ben Howard, The Staves, Nathaniel Rateliff, Bear's Den) pile into their rides and head northeast. They play everywhere from bars to barns, rooms to rooftops, packing out tiny venues and wowing crowds with their unique sounds.But heavy rainstorms, multiple breakdowns, and cramped conditions remind them that to push through sometimes you need to pull together. Featuring Mumford &amp; Sons' Ben Lovett and narrated by Gill Landry this documentary is about a modern tour, done the old fashioned way.\n\nDuration: 01:11:49.28, start: 0.000000, bitrate: 5081 kb/s\n  Stream #0.0(eng): Audio: aac, 48000 Hz, stereo, fltp, 126 kb/s (default)\n  Metadata:\n    creation_time   : 2015-07-29 09:20:02\n  Stream #0.1(eng): Video: h264 (High), yuv420p, 1920x1080 [PAR 1:1 DAR 16:9], 4566 kb/s, 23.98 fps, 23976 tbn, 50 tbc (default)\n  Metadata:\n    creation_time   : 2015-07-29 09:20:02\n  Stream #0.2(eng): Audio: ac3, 48000 Hz, 5.1, fltp, 384 kb/s\n  Metadata:\n    creation_time   : 2015-07-29 09:20:02\n  Stream #0.3(eng): Subtitle: c608 / 0x38303663, 0 kb/s (default)\n  Metadata:\n    creation_time   : 2015-07-29 09:20:02\n  Stream #0.4: Video: mjpeg, yuvj444p, 683x1024 [PAR 72:72 DAR 683:1024], 90k tbn","torrent":{"xt":"urn:btih:828c3e39f69fd658b0bcb2a235b43b9273965c95","amp;dn":"Austin+to+Boston+%282015%29+WEBRip+1080p+H264+iTunes","amp;tr":["udp%3A%2F%2Ftracker.openbittorrent.com%3A80","udp%3A%2F%2Fopen.demonii.com%3A1337","udp%3A%2F%2Ftracker.coppersurfer.tk%3A6969","udp%3A%2F%2Fexodus.desync.com%3A6969"],"infoHash":"828c3e39f69fd658b0bcb2a235b43b9273965c95","infoHashBuffer":{"type":"Buffer","data":[130,140,62,57,246,159,214,88,176,188,178,162,53,180,59,146,115,150,92,149]},"announce":[],"urlList":[]}}